<mxfile host="app.diagrams.net" agent="Mozilla/5.0 (X11; Linux x86_64; rv:129.0) Gecko/20100101 Firefox/129.0" modified="2024-08-28T03:02:21.318Z" version="21.6.7" etag="y0ZQ8dI90iMkNwBQCSjj" type="github">
  <diagram name="Page-1" id="s4J2r13Z4FjWrLX-6--q">
    <mxGraphModel dx="2524" dy="1856" grid="1" gridSize="10" guides="1" tooltips="1" connect="1" arrows="1" fold="1" page="1" pageScale="1" pageWidth="850" pageHeight="1100" math="0" shadow="0">
      <root>
        <mxCell id="0" />
        <mxCell id="1" parent="0" />
        <mxCell id="V-au0ZbSxMBXly3sJU-p-1" value="&lt;h1 style=&quot;margin-top: 0px;&quot;&gt;Generate Game Components State&lt;/h1&gt;&lt;ol&gt;&lt;ol&gt;&lt;li&gt;Create Players&lt;/li&gt;&lt;li&gt;&lt;span style=&quot;background-color: initial;&quot;&gt;Create Starter Deck and Starter Deck Cards&lt;/span&gt;&lt;/li&gt;&lt;li&gt;&lt;span style=&quot;background-color: initial;&quot;&gt;Move cards to player decklists, then to hq deck, and strategy card&lt;/span&gt;&lt;/li&gt;&lt;li&gt;Go to Start Game State&lt;/li&gt;&lt;/ol&gt;&lt;/ol&gt;" style="text;html=1;whiteSpace=wrap;overflow=hidden;rounded=0;" parent="1" vertex="1">
          <mxGeometry x="-840" y="-1080" width="450" height="110" as="geometry" />
        </mxCell>
        <UserObject label="&lt;h2&gt;1. Create_Players(self.Player_ID,computer)&lt;/h2&gt;&lt;ol style=&quot;forced-color-adjust: none; color: rgb(0, 0, 0); font-family: Helvetica; font-size: 12px; font-style: normal; font-variant-ligatures: normal; font-variant-caps: normal; font-weight: 400; letter-spacing: normal; orphans: 2; text-indent: 0px; text-transform: none; widows: 2; word-spacing: 0px; -webkit-text-stroke-width: 0px; white-space: normal; background-color: rgb(251, 251, 251); text-decoration-thickness: initial; text-decoration-style: initial; text-decoration-color: initial;&quot;&gt;&lt;li&gt;enum passed values&lt;br&gt;&lt;/li&gt;&lt;li&gt;For each passed value&lt;br&gt;&lt;/li&gt;&lt;ol style=&quot;forced-color-adjust: none;&quot;&gt;&lt;li&gt;If not computer, then:&lt;br&gt;&lt;/li&gt;&lt;ol style=&quot;forced-color-adjust: none;&quot;&gt;&lt;li&gt;Create player#[]&lt;br&gt;&lt;/li&gt;&lt;li&gt;&lt;span style=&quot;background-color: initial;&quot;&gt;player#.type = human&lt;/span&gt;&lt;br&gt;&lt;/li&gt;&lt;li&gt;&lt;span style=&quot;background-color: initial;&quot;&gt;player#.player_ID = self.Player_ID&lt;/span&gt;&lt;br&gt;&lt;/li&gt;&lt;/ol&gt;&lt;li&gt;&lt;span style=&quot;background-color: initial;&quot;&gt;If computer, then:&lt;/span&gt;&lt;br&gt;&lt;/li&gt;&lt;ol style=&quot;forced-color-adjust: none;&quot;&gt;&lt;li&gt;&lt;span style=&quot;background-color: initial;&quot;&gt;Create player#[]&lt;/span&gt;&lt;br&gt;&lt;/li&gt;&lt;li&gt;&lt;span style=&quot;background-color: initial;&quot;&gt;player#.type = assign_ai()&lt;/span&gt;&lt;br&gt;&lt;/li&gt;&lt;li&gt;&lt;span style=&quot;background-color: initial;&quot;&gt;player#.player_ID = create_Player_ID()&lt;/span&gt;&lt;br&gt;&lt;/li&gt;&lt;/ol&gt;&lt;li&gt;player_order[] = append player[#]&lt;br&gt;&lt;/li&gt;&lt;li&gt;&lt;span style=&quot;background-color: initial;&quot;&gt;create player#.decklist[]&amp;nbsp;&lt;/span&gt;&lt;br&gt;&lt;/li&gt;&lt;li&gt;&lt;span style=&quot;background-color: initial;&quot;&gt;create player#.strategy_card&lt;/span&gt;&lt;br&gt;&lt;/li&gt;&lt;li&gt;&lt;span style=&quot;background-color: initial;&quot;&gt;create player#.commandzone = createcommandzone()&lt;/span&gt;&lt;br&gt;&lt;/li&gt;&lt;ol style=&quot;forced-color-adjust: none;&quot;&gt;&lt;li&gt;&lt;span style=&quot;background-color: initial;&quot;&gt;creates commandzone[]&lt;/span&gt;&lt;br&gt;&lt;/li&gt;&lt;li&gt;&lt;span style=&quot;background-color: initial;&quot;&gt;commandzone = append create strategy_card[]&lt;/span&gt;&lt;br&gt;&lt;/li&gt;&lt;li&gt;&lt;span style=&quot;background-color: initial;&quot;&gt;commandzone = append create reinforcements_deck[]&lt;/span&gt;&lt;br&gt;&lt;/li&gt;&lt;li&gt;&lt;span style=&quot;background-color: initial;&quot;&gt;commandzone = append create declaredfaction[]&lt;/span&gt;&lt;br&gt;&lt;/li&gt;&lt;/ol&gt;&lt;li&gt;create player#.criticalzones = createcriticalzones()&lt;br&gt;&lt;/li&gt;&lt;ol style=&quot;forced-color-adjust: none;&quot;&gt;&lt;li&gt;creates criticalzone[]&lt;br&gt;&lt;/li&gt;&lt;li&gt;criticalzone = append discard_pile[]&lt;br&gt;&lt;/li&gt;&lt;li&gt;criticalzone = append hq_deck[]&lt;br&gt;&lt;/li&gt;&lt;li&gt;criticalzone = append build_zone[]&lt;br&gt;&lt;/li&gt;&lt;li&gt;criticalzone = append build_zone[]&lt;br&gt;&lt;/li&gt;&lt;/ol&gt;&lt;li&gt;create player#.patrol_zone[]&lt;br&gt;&lt;/li&gt;&lt;/ol&gt;&lt;/ol&gt;" link="&#xa;&lt;ol style=&quot;forced-color-adjust: none; color: rgb(0, 0, 0); font-family: Helvetica; font-size: 12px; font-style: normal; font-variant-ligatures: normal; font-variant-caps: normal; font-weight: 400; letter-spacing: normal; orphans: 2; text-align: left; text-indent: 0px; text-transform: none; widows: 2; word-spacing: 0px; -webkit-text-stroke-width: 0px; white-space: normal; background-color: rgb(251, 251, 251); text-decoration-thickness: initial; text-decoration-style: initial; text-decoration-color: initial;&quot;&gt;&lt;li style=&quot;forced-color-adjust: none;&quot;&gt;Create_Players(self.Player_ID,computer)&lt;/li&gt;&lt;ol style=&quot;forced-color-adjust: none;&quot;&gt;&lt;li style=&quot;forced-color-adjust: none;&quot;&gt;enum passed values&lt;/li&gt;&lt;li style=&quot;forced-color-adjust: none;&quot;&gt;For each passed value&lt;/li&gt;&lt;ol style=&quot;forced-color-adjust: none;&quot;&gt;&lt;li style=&quot;forced-color-adjust: none;&quot;&gt;If not computer, then:&lt;/li&gt;&lt;ol style=&quot;forced-color-adjust: none;&quot;&gt;&lt;li style=&quot;forced-color-adjust: none;&quot;&gt;Create player#[]&lt;/li&gt;&lt;li style=&quot;forced-color-adjust: none;&quot;&gt;&lt;span style=&quot;forced-color-adjust: none; background-color: initial;&quot;&gt;player#.type = human&lt;/span&gt;&lt;br style=&quot;forced-color-adjust: none;&quot;&gt;&lt;/li&gt;&lt;li style=&quot;forced-color-adjust: none;&quot;&gt;&lt;span style=&quot;forced-color-adjust: none; background-color: initial;&quot;&gt;player#.player_ID = self.Player_ID&lt;/span&gt;&lt;/li&gt;&lt;/ol&gt;&lt;li style=&quot;forced-color-adjust: none;&quot;&gt;&lt;span style=&quot;forced-color-adjust: none; background-color: initial;&quot;&gt;If computer, then:&lt;/span&gt;&lt;br style=&quot;forced-color-adjust: none;&quot;&gt;&lt;/li&gt;&lt;ol style=&quot;forced-color-adjust: none;&quot;&gt;&lt;li style=&quot;forced-color-adjust: none;&quot;&gt;&lt;span style=&quot;forced-color-adjust: none; background-color: initial;&quot;&gt;Create player#[]&lt;/span&gt;&lt;/li&gt;&lt;li style=&quot;forced-color-adjust: none;&quot;&gt;&lt;span style=&quot;forced-color-adjust: none; background-color: initial;&quot;&gt;player#.type = assign_ai()&lt;/span&gt;&lt;br style=&quot;forced-color-adjust: none;&quot;&gt;&lt;/li&gt;&lt;li style=&quot;forced-color-adjust: none;&quot;&gt;&lt;span style=&quot;forced-color-adjust: none; background-color: initial;&quot;&gt;player#.player_ID = create_Player_ID()&lt;/span&gt;&lt;/li&gt;&lt;/ol&gt;&lt;li style=&quot;forced-color-adjust: none;&quot;&gt;player_order[] = append player[#]&lt;/li&gt;&lt;li style=&quot;forced-color-adjust: none;&quot;&gt;&lt;span style=&quot;forced-color-adjust: none; background-color: initial;&quot;&gt;create player#.decklist[]&amp;nbsp;&lt;/span&gt;&lt;/li&gt;&lt;li style=&quot;forced-color-adjust: none;&quot;&gt;&lt;span style=&quot;forced-color-adjust: none; background-color: initial;&quot;&gt;create player#.strategy_card&lt;/span&gt;&lt;/li&gt;&lt;li style=&quot;forced-color-adjust: none;&quot;&gt;&lt;span style=&quot;forced-color-adjust: none; background-color: initial;&quot;&gt;create player#.commandzone = createcommandzone()&lt;/span&gt;&lt;/li&gt;&lt;ol style=&quot;forced-color-adjust: none;&quot;&gt;&lt;li style=&quot;forced-color-adjust: none;&quot;&gt;&lt;span style=&quot;forced-color-adjust: none; background-color: initial;&quot;&gt;creates commandzone[]&lt;/span&gt;&lt;/li&gt;&lt;li style=&quot;forced-color-adjust: none;&quot;&gt;&lt;span style=&quot;forced-color-adjust: none; background-color: initial;&quot;&gt;commandzone = append create strategy_card[]&lt;/span&gt;&lt;/li&gt;&lt;li style=&quot;forced-color-adjust: none;&quot;&gt;&lt;span style=&quot;forced-color-adjust: none; background-color: initial;&quot;&gt;commandzone = append create reinforcements_deck[]&lt;/span&gt;&lt;/li&gt;&lt;li style=&quot;forced-color-adjust: none;&quot;&gt;&lt;span style=&quot;forced-color-adjust: none; background-color: initial;&quot;&gt;commandzone = append create declaredfaction[]&lt;/span&gt;&lt;/li&gt;&lt;/ol&gt;&lt;li style=&quot;forced-color-adjust: none;&quot;&gt;create player#.criticalzones = createcriticalzones()&lt;/li&gt;&lt;ol style=&quot;forced-color-adjust: none;&quot;&gt;&lt;li style=&quot;forced-color-adjust: none;&quot;&gt;creates criticalzone[]&lt;/li&gt;&lt;li style=&quot;forced-color-adjust: none;&quot;&gt;criticalzone = append discard_pile[]&lt;/li&gt;&lt;li style=&quot;forced-color-adjust: none;&quot;&gt;criticalzone = append hq_deck[]&lt;/li&gt;&lt;li style=&quot;forced-color-adjust: none;&quot;&gt;criticalzone = append build_zone[]&lt;/li&gt;&lt;li style=&quot;forced-color-adjust: none;&quot;&gt;criticalzone = append build_zone[]&lt;/li&gt;&lt;/ol&gt;&lt;li style=&quot;forced-color-adjust: none;&quot;&gt;create player#.patrol_zone[]&lt;/li&gt;&lt;/ol&gt;&lt;/ol&gt;&lt;/ol&gt;&#xa;&#xa;" id="V-au0ZbSxMBXly3sJU-p-3">
          <mxCell style="text;html=1;align=left;verticalAlign=middle;whiteSpace=wrap;rounded=0;" parent="1" vertex="1">
            <mxGeometry x="-800" y="-960" width="480" height="410" as="geometry" />
          </mxCell>
        </UserObject>
        <UserObject label="&lt;br&gt;&lt;h2&gt;2. Create starter deck and starter deck cards&lt;/h2&gt;&lt;ol style=&quot;forced-color-adjust: none; color: rgb(0, 0, 0); font-family: Helvetica; font-size: 12px; font-style: normal; font-variant-ligatures: normal; font-variant-caps: normal; font-weight: 400; letter-spacing: normal; orphans: 2; text-indent: 0px; text-transform: none; widows: 2; word-spacing: 0px; -webkit-text-stroke-width: 0px; white-space: normal; background-color: rgb(251, 251, 251); text-decoration-thickness: initial; text-decoration-style: initial; text-decoration-color: initial;&quot;&gt;&lt;li&gt;Create starterdeck[]&lt;br&gt;&lt;/li&gt;&lt;li&gt;Create tempcard = (Card object)&lt;br&gt;&lt;/li&gt;&lt;li&gt;enum subtypes = [,,squad,mech squad,recon,tank,medium tank]&lt;br&gt;&lt;/li&gt;&lt;li&gt;For each (i=0,i++,i&amp;lt;4)&lt;br&gt;&lt;/li&gt;&lt;ol style=&quot;forced-color-adjust: none;&quot;&gt;&lt;li&gt;For (n=0,n++,n&amp;lt;13)&lt;br&gt;&lt;/li&gt;&lt;ol style=&quot;forced-color-adjust: none;&quot;&gt;&lt;li&gt;tempcard.suit = switch(i,0-3=d,h,c,s)&lt;br&gt;&lt;/li&gt;&lt;li&gt;tempcard.number=n+1&lt;br&gt;&lt;/li&gt;&lt;li&gt;tempcard.id=((i*13) + (n+1) /*this makes a unique id for the card that is 1-52.*/&lt;br&gt;&lt;/li&gt;&lt;li&gt;if tempcard.number = 1&lt;br&gt;&lt;/li&gt;&lt;ol style=&quot;forced-color-adjust: none;&quot;&gt;&lt;li&gt;tempcard.type = copy&lt;br&gt;&lt;/li&gt;&lt;/ol&gt;&lt;li&gt;if tempcard.number = [2,3,4,5,6]&lt;br&gt;&lt;/li&gt;&lt;ol style=&quot;forced-color-adjust: none;&quot;&gt;&lt;li&gt;tempcard.type = unit&lt;br&gt;&lt;/li&gt;&lt;li&gt;tempcard.subtypes = subtype(tempcard.number)&lt;br&gt;&lt;/li&gt;&lt;li&gt;tempcard.power = tempcard.number&lt;br&gt;&lt;/li&gt;&lt;li&gt;tempcard.health = tempcard.number * 2&lt;br&gt;&lt;/li&gt;&lt;li&gt;tempcard.size = tempcard.number&lt;br&gt;&lt;/li&gt;&lt;/ol&gt;&lt;li&gt;if tempcard.number = [7,8,9,10]&lt;br&gt;&lt;/li&gt;&lt;ol style=&quot;forced-color-adjust: none;&quot;&gt;&lt;li&gt;tempcard.type = structure&lt;br&gt;&lt;/li&gt;&lt;li&gt;tempcard.health = 2&lt;br&gt;&lt;/li&gt;&lt;li&gt;tempcard.discardability = draw()&lt;br&gt;&lt;/li&gt;&lt;/ol&gt;&lt;li&gt;if tempcard.number = [11,12,13]&lt;br&gt;&lt;/li&gt;&lt;ol style=&quot;forced-color-adjust: none;&quot;&gt;&lt;li&gt;tempcard.type = tactic&lt;br&gt;&lt;/li&gt;&lt;li&gt;&lt;span style=&quot;background-color: initial;&quot;&gt;if i = [0,1]&lt;/span&gt;&lt;br&gt;&lt;/li&gt;&lt;ol style=&quot;forced-color-adjust: none;&quot;&gt;&lt;li&gt;tempcard.support = true&lt;br&gt;&lt;/li&gt;&lt;li&gt;&lt;span style=&quot;background-color: initial;&quot;&gt;tempcard.trigger =&amp;nbsp;&lt;/span&gt;while (self.patrolzone.unit[i],i++,!=null) {if self.patrolzoneunit[i].attacking = true then return true)&lt;br&gt;&lt;/li&gt;&lt;li&gt;tempcard.discardeffect = pluspower.temp(target(unit)),pluspower.temp(target(unit)),pluspower.temp(target(unit))&lt;br&gt;&lt;/li&gt;&lt;li&gt;tempcard.deployeffect = draw(2)&lt;br&gt;&lt;/li&gt;&lt;/ol&gt;&lt;li&gt;if i = [2,3]&lt;br&gt;&lt;/li&gt;&lt;ol style=&quot;forced-color-adjust: none;&quot;&gt;&lt;li&gt;tempcard.ambush = true&lt;br&gt;&lt;/li&gt;&lt;li&gt;tempcard.trigger = self.unitattackingyou = true&lt;br&gt;&lt;/li&gt;&lt;li&gt;tempcard.discardeffect = dealdamage(targetunit()),6)&lt;br&gt;&lt;/li&gt;&lt;li&gt;tempcard.deployeffect = draw()&lt;br&gt;&lt;/li&gt;&lt;/ol&gt;&lt;/ol&gt;&lt;li&gt;starterdeck[] = append temp.card&lt;br&gt;&lt;/li&gt;&lt;/ol&gt;&lt;/ol&gt;&lt;li&gt;tempcard = []&amp;nbsp; &amp;nbsp;&lt;br&gt;&lt;/li&gt;&lt;/ol&gt;&lt;br class=&quot;Apple-interchange-newline&quot;&gt;&lt;div&gt;&lt;br&gt;&lt;/div&gt;" link="&#xa;&lt;ol style=&quot;forced-color-adjust: none; color: rgb(0, 0, 0); font-family: Helvetica; font-size: 12px; font-style: normal; font-variant-ligatures: normal; font-variant-caps: normal; font-weight: 400; letter-spacing: normal; orphans: 2; text-align: left; text-indent: 0px; text-transform: none; widows: 2; word-spacing: 0px; -webkit-text-stroke-width: 0px; white-space: normal; background-color: rgb(251, 251, 251); text-decoration-thickness: initial; text-decoration-style: initial; text-decoration-color: initial;&quot;&gt;&lt;li style=&quot;forced-color-adjust: none;&quot;&gt;Create starter deck and starter deck cards&lt;/li&gt;&lt;ol style=&quot;forced-color-adjust: none;&quot;&gt;&lt;li style=&quot;forced-color-adjust: none;&quot;&gt;Create starterdeck[]&lt;/li&gt;&lt;li style=&quot;forced-color-adjust: none;&quot;&gt;Create tempcard = (Card object)&lt;/li&gt;&lt;li style=&quot;forced-color-adjust: none;&quot;&gt;enum subtypes = [,,squad,mech squad,recon,tank,medium tank]&lt;/li&gt;&lt;li style=&quot;forced-color-adjust: none;&quot;&gt;For each (i=0,i++,i&amp;lt;4)&lt;/li&gt;&lt;ol style=&quot;forced-color-adjust: none;&quot;&gt;&lt;li style=&quot;forced-color-adjust: none;&quot;&gt;For (n=0,n++,n&amp;lt;13)&lt;/li&gt;&lt;ol style=&quot;forced-color-adjust: none;&quot;&gt;&lt;li style=&quot;forced-color-adjust: none;&quot;&gt;tempcard.suit = switch(i,0-3=d,h,c,s)&lt;/li&gt;&lt;li style=&quot;forced-color-adjust: none;&quot;&gt;tempcard.number=n+1&lt;/li&gt;&lt;li style=&quot;forced-color-adjust: none;&quot;&gt;tempcard.id=((i*13) + (n+1) /*this makes a unique id for the card that is 1-52.*/&lt;/li&gt;&lt;li style=&quot;forced-color-adjust: none;&quot;&gt;if tempcard.number = 1&lt;/li&gt;&lt;ol style=&quot;forced-color-adjust: none;&quot;&gt;&lt;li style=&quot;forced-color-adjust: none;&quot;&gt;tempcard.type = copy&lt;/li&gt;&lt;/ol&gt;&lt;li style=&quot;forced-color-adjust: none;&quot;&gt;if tempcard.number = [2,3,4,5,6]&lt;/li&gt;&lt;ol style=&quot;forced-color-adjust: none;&quot;&gt;&lt;li style=&quot;forced-color-adjust: none;&quot;&gt;tempcard.type = unit&lt;/li&gt;&lt;li style=&quot;forced-color-adjust: none;&quot;&gt;tempcard.subtypes = subtype(tempcard.number)&lt;/li&gt;&lt;li style=&quot;forced-color-adjust: none;&quot;&gt;tempcard.power = tempcard.number&lt;/li&gt;&lt;li style=&quot;forced-color-adjust: none;&quot;&gt;tempcard.health = tempcard.number * 2&lt;/li&gt;&lt;li style=&quot;forced-color-adjust: none;&quot;&gt;tempcard.size = tempcard.number&lt;/li&gt;&lt;/ol&gt;&lt;li style=&quot;forced-color-adjust: none;&quot;&gt;if tempcard.number = [7,8,9,10]&lt;/li&gt;&lt;ol style=&quot;forced-color-adjust: none;&quot;&gt;&lt;li style=&quot;forced-color-adjust: none;&quot;&gt;tempcard.type = structure&lt;/li&gt;&lt;li style=&quot;forced-color-adjust: none;&quot;&gt;tempcard.health = 2&lt;/li&gt;&lt;li style=&quot;forced-color-adjust: none;&quot;&gt;tempcard.discardability = draw()&lt;/li&gt;&lt;/ol&gt;&lt;li style=&quot;forced-color-adjust: none;&quot;&gt;if tempcard.number = [11,12,13]&lt;/li&gt;&lt;ol style=&quot;forced-color-adjust: none;&quot;&gt;&lt;li style=&quot;forced-color-adjust: none;&quot;&gt;tempcard.type = tactic&lt;/li&gt;&lt;li style=&quot;forced-color-adjust: none;&quot;&gt;&lt;span style=&quot;forced-color-adjust: none; background-color: initial;&quot;&gt;if i = [0,1]&lt;/span&gt;&lt;/li&gt;&lt;ol style=&quot;forced-color-adjust: none;&quot;&gt;&lt;li style=&quot;forced-color-adjust: none;&quot;&gt;tempcard.support = true&lt;/li&gt;&lt;li style=&quot;forced-color-adjust: none;&quot;&gt;&lt;span style=&quot;forced-color-adjust: none; background-color: initial;&quot;&gt;tempcard.trigger =&amp;nbsp;&lt;/span&gt;while (self.patrolzone.unit[i],i++,!=null) {if self.patrolzoneunit[i].attacking = true then return true)&lt;/li&gt;&lt;li style=&quot;forced-color-adjust: none;&quot;&gt;tempcard.discardeffect = pluspower.temp(target(unit)),pluspower.temp(target(unit)),pluspower.temp(target(unit))&lt;/li&gt;&lt;li style=&quot;forced-color-adjust: none;&quot;&gt;tempcard.deployeffect = draw(2)&lt;/li&gt;&lt;/ol&gt;&lt;li style=&quot;forced-color-adjust: none;&quot;&gt;if i = [2,3]&lt;/li&gt;&lt;ol style=&quot;forced-color-adjust: none;&quot;&gt;&lt;li style=&quot;forced-color-adjust: none;&quot;&gt;tempcard.ambush = true&lt;/li&gt;&lt;li style=&quot;forced-color-adjust: none;&quot;&gt;tempcard.trigger = self.unitattackingyou = true&lt;/li&gt;&lt;li style=&quot;forced-color-adjust: none;&quot;&gt;tempcard.discardeffect = dealdamage(targetunit()),6)&lt;/li&gt;&lt;li style=&quot;forced-color-adjust: none;&quot;&gt;tempcard.deployeffect = draw()&lt;/li&gt;&lt;/ol&gt;&lt;/ol&gt;&lt;li style=&quot;forced-color-adjust: none;&quot;&gt;starterdeck[] = append temp.card&lt;/li&gt;&lt;/ol&gt;&lt;/ol&gt;&lt;li style=&quot;forced-color-adjust: none;&quot;&gt;tempcard = []&amp;nbsp; &amp;nbsp;&lt;/li&gt;&lt;/ol&gt;&lt;/ol&gt;&lt;br class=&quot;Apple-interchange-newline&quot;&gt;&#xa;&#xa;" id="V-au0ZbSxMBXly3sJU-p-6">
          <mxCell style="text;html=1;align=left;verticalAlign=middle;whiteSpace=wrap;rounded=0;" parent="1" vertex="1">
            <mxGeometry x="-280" y="-960" width="710" height="580" as="geometry" />
          </mxCell>
        </UserObject>
        <mxCell id="V-au0ZbSxMBXly3sJU-p-7" value="&lt;h2&gt;&lt;span style=&quot;background-color: initial;&quot;&gt;3. Move cards to decklists&amp;nbsp;&lt;/span&gt;&lt;/h2&gt;&lt;ol style=&quot;&quot;&gt;&lt;li&gt;&lt;span style=&quot;background-color: initial;&quot;&gt;for each player&lt;/span&gt;&lt;br&gt;&lt;/li&gt;&lt;ol&gt;&lt;li&gt;&lt;span style=&quot;background-color: initial;&quot;&gt;for starterdeck[i],,i!=null&lt;/span&gt;&lt;br&gt;&lt;/li&gt;&lt;ol&gt;&lt;li&gt;&lt;span style=&quot;background-color: initial;&quot;&gt;if starterdeck[i].suit=[h,c]&lt;/span&gt;&lt;br&gt;&lt;/li&gt;&lt;ol&gt;&lt;li&gt;&lt;span style=&quot;background-color: initial;&quot;&gt;move startdeck[i] to player0.criticalzone.hq_deck[]&lt;/span&gt;&lt;br&gt;&lt;/li&gt;&lt;/ol&gt;&lt;li&gt;&lt;span style=&quot;background-color: initial;&quot;&gt;else&lt;/span&gt;&lt;br&gt;&lt;/li&gt;&lt;li&gt;&lt;span style=&quot;background-color: initial;&quot;&gt;move startdeck[i] to&amp;nbsp;player0.criticalzone.hq_deck[]&lt;/span&gt;&lt;br&gt;&lt;/li&gt;&lt;/ol&gt;&lt;li&gt;&lt;span style=&quot;background-color: initial;&quot;&gt;move player0.criticalzone.hqdeck[4] to player0.commandzone.strategy_card&lt;/span&gt;&lt;br&gt;&lt;/li&gt;&lt;li&gt;&lt;span style=&quot;background-color: initial;&quot;&gt;move player1.criticalzone.hqdeck[4] to player0.commandzone.strategy_card&lt;/span&gt;&lt;/li&gt;&lt;/ol&gt;&lt;/ol&gt;" style="text;html=1;align=left;verticalAlign=middle;whiteSpace=wrap;rounded=0;" parent="1" vertex="1">
          <mxGeometry x="-800" y="-550" width="500" height="170" as="geometry" />
        </mxCell>
        <mxCell id="fmPOmeh7_gXUXdGmqdAh-1" value="Player" style="swimlane;fontStyle=0;childLayout=stackLayout;horizontal=1;startSize=30;horizontalStack=0;resizeParent=1;resizeParentMax=0;resizeLast=0;collapsible=1;marginBottom=0;whiteSpace=wrap;html=1;" vertex="1" parent="1">
          <mxGeometry x="470" y="-620" width="140" height="120" as="geometry">
            <mxRectangle x="520" y="-980" width="70" height="30" as="alternateBounds" />
          </mxGeometry>
        </mxCell>
        <mxCell id="fmPOmeh7_gXUXdGmqdAh-3" value="ID" style="text;strokeColor=none;fillColor=none;align=left;verticalAlign=middle;spacingLeft=4;spacingRight=4;overflow=hidden;points=[[0,0.5],[1,0.5]];portConstraint=eastwest;rotatable=0;whiteSpace=wrap;html=1;" vertex="1" parent="fmPOmeh7_gXUXdGmqdAh-1">
          <mxGeometry y="30" width="140" height="30" as="geometry" />
        </mxCell>
        <mxCell id="fmPOmeh7_gXUXdGmqdAh-2" value="Type" style="text;strokeColor=none;fillColor=none;align=left;verticalAlign=middle;spacingLeft=4;spacingRight=4;overflow=hidden;points=[[0,0.5],[1,0.5]];portConstraint=eastwest;rotatable=0;whiteSpace=wrap;html=1;" vertex="1" parent="fmPOmeh7_gXUXdGmqdAh-1">
          <mxGeometry y="60" width="140" height="30" as="geometry" />
        </mxCell>
        <mxCell id="fmPOmeh7_gXUXdGmqdAh-4" value="Deck" style="text;strokeColor=none;fillColor=none;align=left;verticalAlign=middle;spacingLeft=4;spacingRight=4;overflow=hidden;points=[[0,0.5],[1,0.5]];portConstraint=eastwest;rotatable=0;whiteSpace=wrap;html=1;" vertex="1" parent="fmPOmeh7_gXUXdGmqdAh-1">
          <mxGeometry y="90" width="140" height="30" as="geometry" />
        </mxCell>
        <mxCell id="fmPOmeh7_gXUXdGmqdAh-12" value="Deck" style="swimlane;fontStyle=0;childLayout=stackLayout;horizontal=1;startSize=30;horizontalStack=0;resizeParent=1;resizeParentMax=0;resizeLast=0;collapsible=1;marginBottom=0;whiteSpace=wrap;html=1;" vertex="1" parent="1">
          <mxGeometry x="630" y="-350" width="140" height="90" as="geometry" />
        </mxCell>
        <mxCell id="fmPOmeh7_gXUXdGmqdAh-13" value="CardList" style="text;strokeColor=none;fillColor=none;align=left;verticalAlign=middle;spacingLeft=4;spacingRight=4;overflow=hidden;points=[[0,0.5],[1,0.5]];portConstraint=eastwest;rotatable=0;whiteSpace=wrap;html=1;" vertex="1" parent="fmPOmeh7_gXUXdGmqdAh-12">
          <mxGeometry y="30" width="140" height="30" as="geometry" />
        </mxCell>
        <mxCell id="fmPOmeh7_gXUXdGmqdAh-14" value="StrategyCard" style="text;strokeColor=none;fillColor=none;align=left;verticalAlign=middle;spacingLeft=4;spacingRight=4;overflow=hidden;points=[[0,0.5],[1,0.5]];portConstraint=eastwest;rotatable=0;whiteSpace=wrap;html=1;" vertex="1" parent="fmPOmeh7_gXUXdGmqdAh-12">
          <mxGeometry y="60" width="140" height="30" as="geometry" />
        </mxCell>
        <mxCell id="fmPOmeh7_gXUXdGmqdAh-16" style="edgeStyle=orthogonalEdgeStyle;rounded=0;orthogonalLoop=1;jettySize=auto;html=1;exitX=1;exitY=0.5;exitDx=0;exitDy=0;entryX=0.5;entryY=0;entryDx=0;entryDy=0;" edge="1" parent="1" source="fmPOmeh7_gXUXdGmqdAh-4" target="fmPOmeh7_gXUXdGmqdAh-12">
          <mxGeometry relative="1" as="geometry" />
        </mxCell>
        <mxCell id="fmPOmeh7_gXUXdGmqdAh-17" value="PlayerBoard" style="swimlane;fontStyle=0;childLayout=stackLayout;horizontal=1;startSize=30;horizontalStack=0;resizeParent=1;resizeParentMax=0;resizeLast=0;collapsible=1;marginBottom=0;whiteSpace=wrap;html=1;" vertex="1" parent="1">
          <mxGeometry x="780" y="-730" width="140" height="270" as="geometry" />
        </mxCell>
        <mxCell id="fmPOmeh7_gXUXdGmqdAh-18" value="Player" style="text;strokeColor=none;fillColor=none;align=left;verticalAlign=middle;spacingLeft=4;spacingRight=4;overflow=hidden;points=[[0,0.5],[1,0.5]];portConstraint=eastwest;rotatable=0;whiteSpace=wrap;html=1;" vertex="1" parent="fmPOmeh7_gXUXdGmqdAh-17">
          <mxGeometry y="30" width="140" height="30" as="geometry" />
        </mxCell>
        <mxCell id="fmPOmeh7_gXUXdGmqdAh-28" value="CommandZone" style="text;strokeColor=none;fillColor=none;align=left;verticalAlign=middle;spacingLeft=4;spacingRight=4;overflow=hidden;points=[[0,0.5],[1,0.5]];portConstraint=eastwest;rotatable=0;whiteSpace=wrap;html=1;" vertex="1" parent="fmPOmeh7_gXUXdGmqdAh-17">
          <mxGeometry y="60" width="140" height="30" as="geometry" />
        </mxCell>
        <mxCell id="fmPOmeh7_gXUXdGmqdAh-27" value="PatrolZone" style="text;strokeColor=none;fillColor=none;align=left;verticalAlign=middle;spacingLeft=4;spacingRight=4;overflow=hidden;points=[[0,0.5],[1,0.5]];portConstraint=eastwest;rotatable=0;whiteSpace=wrap;html=1;" vertex="1" parent="fmPOmeh7_gXUXdGmqdAh-17">
          <mxGeometry y="90" width="140" height="30" as="geometry" />
        </mxCell>
        <mxCell id="fmPOmeh7_gXUXdGmqdAh-29" value="StrongholdZone" style="text;strokeColor=none;fillColor=none;align=left;verticalAlign=middle;spacingLeft=4;spacingRight=4;overflow=hidden;points=[[0,0.5],[1,0.5]];portConstraint=eastwest;rotatable=0;whiteSpace=wrap;html=1;" vertex="1" parent="fmPOmeh7_gXUXdGmqdAh-17">
          <mxGeometry y="120" width="140" height="30" as="geometry" />
        </mxCell>
        <mxCell id="fmPOmeh7_gXUXdGmqdAh-20" value="Discard" style="text;strokeColor=none;fillColor=none;align=left;verticalAlign=middle;spacingLeft=4;spacingRight=4;overflow=hidden;points=[[0,0.5],[1,0.5]];portConstraint=eastwest;rotatable=0;whiteSpace=wrap;html=1;" vertex="1" parent="fmPOmeh7_gXUXdGmqdAh-17">
          <mxGeometry y="150" width="140" height="30" as="geometry" />
        </mxCell>
        <mxCell id="fmPOmeh7_gXUXdGmqdAh-19" value="HQDeck" style="text;strokeColor=none;fillColor=none;align=left;verticalAlign=middle;spacingLeft=4;spacingRight=4;overflow=hidden;points=[[0,0.5],[1,0.5]];portConstraint=eastwest;rotatable=0;whiteSpace=wrap;html=1;" vertex="1" parent="fmPOmeh7_gXUXdGmqdAh-17">
          <mxGeometry y="180" width="140" height="30" as="geometry" />
        </mxCell>
        <mxCell id="fmPOmeh7_gXUXdGmqdAh-25" value="BuildZoneA" style="text;strokeColor=none;fillColor=none;align=left;verticalAlign=middle;spacingLeft=4;spacingRight=4;overflow=hidden;points=[[0,0.5],[1,0.5]];portConstraint=eastwest;rotatable=0;whiteSpace=wrap;html=1;" vertex="1" parent="fmPOmeh7_gXUXdGmqdAh-17">
          <mxGeometry y="210" width="140" height="30" as="geometry" />
        </mxCell>
        <mxCell id="fmPOmeh7_gXUXdGmqdAh-26" value="BuildZoneB" style="text;strokeColor=none;fillColor=none;align=left;verticalAlign=middle;spacingLeft=4;spacingRight=4;overflow=hidden;points=[[0,0.5],[1,0.5]];portConstraint=eastwest;rotatable=0;whiteSpace=wrap;html=1;" vertex="1" parent="fmPOmeh7_gXUXdGmqdAh-17">
          <mxGeometry y="240" width="140" height="30" as="geometry" />
        </mxCell>
        <mxCell id="fmPOmeh7_gXUXdGmqdAh-42" style="edgeStyle=orthogonalEdgeStyle;rounded=0;orthogonalLoop=1;jettySize=auto;html=1;exitX=0.75;exitY=0;exitDx=0;exitDy=0;entryX=0;entryY=0.25;entryDx=0;entryDy=0;" edge="1" parent="1" source="fmPOmeh7_gXUXdGmqdAh-21" target="fmPOmeh7_gXUXdGmqdAh-41">
          <mxGeometry relative="1" as="geometry" />
        </mxCell>
        <mxCell id="fmPOmeh7_gXUXdGmqdAh-21" value="GameManager" style="swimlane;fontStyle=0;childLayout=stackLayout;horizontal=1;startSize=30;horizontalStack=0;resizeParent=1;resizeParentMax=0;resizeLast=0;collapsible=1;marginBottom=0;whiteSpace=wrap;html=1;" vertex="1" parent="1">
          <mxGeometry x="540" y="-900" width="140" height="180" as="geometry" />
        </mxCell>
        <mxCell id="fmPOmeh7_gXUXdGmqdAh-35" value="Players" style="text;strokeColor=none;fillColor=none;align=left;verticalAlign=middle;spacingLeft=4;spacingRight=4;overflow=hidden;points=[[0,0.5],[1,0.5]];portConstraint=eastwest;rotatable=0;whiteSpace=wrap;html=1;" vertex="1" parent="fmPOmeh7_gXUXdGmqdAh-21">
          <mxGeometry y="30" width="140" height="30" as="geometry" />
        </mxCell>
        <mxCell id="fmPOmeh7_gXUXdGmqdAh-22" value="PlayerBoardA" style="text;strokeColor=none;fillColor=none;align=left;verticalAlign=middle;spacingLeft=4;spacingRight=4;overflow=hidden;points=[[0,0.5],[1,0.5]];portConstraint=eastwest;rotatable=0;whiteSpace=wrap;html=1;" vertex="1" parent="fmPOmeh7_gXUXdGmqdAh-21">
          <mxGeometry y="60" width="140" height="30" as="geometry" />
        </mxCell>
        <mxCell id="fmPOmeh7_gXUXdGmqdAh-23" value="PlayerBoardB" style="text;strokeColor=none;fillColor=none;align=left;verticalAlign=middle;spacingLeft=4;spacingRight=4;overflow=hidden;points=[[0,0.5],[1,0.5]];portConstraint=eastwest;rotatable=0;whiteSpace=wrap;html=1;" vertex="1" parent="fmPOmeh7_gXUXdGmqdAh-21">
          <mxGeometry y="90" width="140" height="30" as="geometry" />
        </mxCell>
        <mxCell id="fmPOmeh7_gXUXdGmqdAh-24" value="TurnOrder" style="text;strokeColor=none;fillColor=none;align=left;verticalAlign=middle;spacingLeft=4;spacingRight=4;overflow=hidden;points=[[0,0.5],[1,0.5]];portConstraint=eastwest;rotatable=0;whiteSpace=wrap;html=1;" vertex="1" parent="fmPOmeh7_gXUXdGmqdAh-21">
          <mxGeometry y="120" width="140" height="30" as="geometry" />
        </mxCell>
        <mxCell id="fmPOmeh7_gXUXdGmqdAh-34" value="CurrentTurn" style="text;strokeColor=none;fillColor=none;align=left;verticalAlign=middle;spacingLeft=4;spacingRight=4;overflow=hidden;points=[[0,0.5],[1,0.5]];portConstraint=eastwest;rotatable=0;whiteSpace=wrap;html=1;" vertex="1" parent="fmPOmeh7_gXUXdGmqdAh-21">
          <mxGeometry y="150" width="140" height="30" as="geometry" />
        </mxCell>
        <mxCell id="fmPOmeh7_gXUXdGmqdAh-30" style="edgeStyle=orthogonalEdgeStyle;rounded=0;orthogonalLoop=1;jettySize=auto;html=1;exitX=1;exitY=0.5;exitDx=0;exitDy=0;entryX=0.5;entryY=0;entryDx=0;entryDy=0;" edge="1" parent="1" source="fmPOmeh7_gXUXdGmqdAh-22" target="fmPOmeh7_gXUXdGmqdAh-17">
          <mxGeometry relative="1" as="geometry" />
        </mxCell>
        <mxCell id="fmPOmeh7_gXUXdGmqdAh-31" style="edgeStyle=orthogonalEdgeStyle;rounded=0;orthogonalLoop=1;jettySize=auto;html=1;exitX=1;exitY=0.5;exitDx=0;exitDy=0;entryX=0.5;entryY=0;entryDx=0;entryDy=0;" edge="1" parent="1" source="fmPOmeh7_gXUXdGmqdAh-23" target="fmPOmeh7_gXUXdGmqdAh-17">
          <mxGeometry relative="1" as="geometry">
            <mxPoint x="920" y="-750" as="targetPoint" />
          </mxGeometry>
        </mxCell>
        <mxCell id="fmPOmeh7_gXUXdGmqdAh-32" style="edgeStyle=orthogonalEdgeStyle;rounded=0;orthogonalLoop=1;jettySize=auto;html=1;exitX=0;exitY=0.5;exitDx=0;exitDy=0;entryX=0.75;entryY=0;entryDx=0;entryDy=0;" edge="1" parent="1" source="fmPOmeh7_gXUXdGmqdAh-18" target="fmPOmeh7_gXUXdGmqdAh-1">
          <mxGeometry relative="1" as="geometry" />
        </mxCell>
        <mxCell id="fmPOmeh7_gXUXdGmqdAh-36" style="edgeStyle=orthogonalEdgeStyle;rounded=0;orthogonalLoop=1;jettySize=auto;html=1;exitX=0;exitY=0.5;exitDx=0;exitDy=0;entryX=0.25;entryY=0;entryDx=0;entryDy=0;" edge="1" parent="1" source="fmPOmeh7_gXUXdGmqdAh-35" target="fmPOmeh7_gXUXdGmqdAh-1">
          <mxGeometry relative="1" as="geometry" />
        </mxCell>
        <mxCell id="fmPOmeh7_gXUXdGmqdAh-41" value="Need some sort of turn manager / state machine" style="whiteSpace=wrap;html=1;aspect=fixed;" vertex="1" parent="1">
          <mxGeometry x="740" y="-940" width="80" height="80" as="geometry" />
        </mxCell>
      </root>
    </mxGraphModel>
  </diagram>
</mxfile>
